<svg id="Layer_1" data-name="Layer 1" xmlns="http://www.w3.org/2000/svg" viewBox="0 0 223.14 211.53"><defs><style>.cls-1{fill:none;stroke:#fff;stroke-linecap:round;stroke-linejoin:round;stroke-width:10px;}</style></defs><title>mw_logo</title><path class="cls-1" d="M5,32.31s0-27,19.15-27.24c13.57-.16,163,0,163,0s14.47-1,14.47,19.37c0,21.33-1.58,118.87-3.58,151.87-1,15.91-21.53,17.79-24,3-3-18-5-46-6.34-55-2.35-15.83-20.18-16.93-22.41-1-2.14,15.2-4.51,41.64-7.7,55-3.11,13.1-15.52,13.4-20.55,0-9-24-3-101-10.55-140.12-4-20.78-20.45-20.88-23.3,1-3.68,28.34-4,47.54-6.72,53.05-5.43,11.07-16.36,10-20.41,0s-4-26.58-5.7-54C49,16.31,26,16.31,25.06,38.19,23.64,71.34,21,148.31,22.12,192c.37,14.26,13.91,14.53,19.48,14.53H199.74s18.26-.22,18.4-28.49"/></svg>